<svg width="936" height="936" viewBox="0 0 936 936" fill="none" xmlns="http://www.w3.org/2000/svg">
<g clip-path="url(#clip0_2129_222)">
<circle cx="469" cy="468" r="468" fill="white"/>
<circle cx="468.418" cy="390.597" r="379.582" fill="#0077C5"/>
<path d="M363.398 879.283C446.872 879.283 488.463 777.114 418.38 758.831C363.398 739.472 350.454 692.153 350.454 663.113C350.454 595.908 414.224 556.824 472.29 561.553L463.665 658.811C469.515 652.713 515.418 600.735 529.435 584.334C548.929 600.892 562.671 626.727 565.016 663.113C568.706 720.375 521.888 752.376 504.636 765.281C487.385 778.187 460.437 879.283 604.915 879.283C720.499 879.283 713.454 740.187 695.484 670.639C670.326 589.619 616.991 416.825 604.915 373.806C660.982 328.635 612.463 269.484 559.631 313.579C475.1 265.397 393.588 288.128 363.398 308.203C346.147 297.448 315.095 292.071 303.019 317.883C290.943 343.694 310.207 364.485 324.583 373.806C292.956 486.373 243.707 654.079 235.081 686.773C214.367 765.281 244.463 879.283 363.398 879.283Z" fill="white"/>
<path d="M472.29 561.553C414.224 556.824 350.454 595.908 350.454 663.113C350.454 692.153 363.398 739.472 418.38 758.831C488.463 777.114 446.872 879.283 363.398 879.283C244.463 879.283 214.367 765.281 235.081 686.773C243.707 654.079 292.956 486.373 324.583 373.806C310.207 364.485 290.943 343.694 303.019 317.883C315.095 292.071 346.147 297.448 363.398 308.203C393.588 288.128 475.1 265.397 559.631 313.579C612.463 269.484 660.982 328.635 604.915 373.806C616.991 416.825 670.326 589.619 695.484 670.639C713.454 740.187 720.499 879.283 604.915 879.283C460.437 879.283 487.385 778.187 504.636 765.281C521.888 752.376 568.706 720.375 565.016 663.113C562.671 626.727 548.929 600.892 529.435 584.334C515.418 600.735 469.515 652.713 463.665 658.811M472.29 561.553C469.292 595.357 466.622 625.471 463.665 658.811M472.29 561.553L463.665 658.811" stroke="#0077C5" stroke-width="2"/>
<ellipse cx="542.418" cy="379.058" rx="7.35625" ry="8.82749" fill="black"/>
<path d="M482.096 385.925C482.096 393.749 466.331 405.541 459.914 405.541C453.497 405.541 440.901 393.749 440.901 385.925C440.901 378.1 453.497 376.116 459.914 376.116C466.331 376.116 482.096 378.1 482.096 385.925Z" fill="black"/>
<ellipse cx="386.461" cy="379.058" rx="7.35625" ry="8.82749" fill="black"/>
</g>
<defs>
<clipPath id="clip0_2129_222">
<rect width="936" height="936" fill="white"/>
</clipPath>
</defs>
</svg>
